<?xml version="1.0" standalone="no"?>
<!DOCTYPE svg PUBLIC "-//W3C//DTD SVG 20010904//EN"
 "http://www.w3.org/TR/2001/REC-SVG-20010904/DTD/svg10.dtd">
<svg version="1.0" xmlns="http://www.w3.org/2000/svg"
 width="512.000000pt" height="512.000000pt" viewBox="0 0 512.000000 512.000000"
 preserveAspectRatio="xMidYMid meet">
<metadata>
Created by potrace 1.14, written by Peter Selinger 2001-2017
</metadata>
<g transform="translate(0.000000,512.000000) scale(0.100000,-0.100000)"
fill="#000000" stroke="none">
<path d="M2580 4763 c-146 -15 -362 -65 -465 -108 -98 -40 -216 -95 -225 -105
-3 -3 -18 -13 -35 -22 -16 -10 -29 -22 -27 -28 1 -7 -2 -9 -7 -6 -13 8 -42 -4
-35 -15 3 -5 -3 -9 -14 -9 -10 0 -37 -18 -60 -39 -22 -21 -44 -36 -48 -32 -4
3 -4 0 0 -6 4 -8 2 -13 -6 -13 -8 0 -37 -24 -65 -53 l-52 -54 34 11 c26 8 30
12 18 17 -14 5 -13 7 6 12 13 3 20 10 16 16 -10 17 11 13 25 -4 19 -23 70 -10
55 15 -5 8 -12 5 -22 -7 -8 -10 -12 -13 -9 -7 3 7 -2 11 -12 10 -9 0 -17 6
-17 14 0 8 6 14 14 12 7 -1 21 7 32 19 11 12 25 19 34 15 19 -7 20 -26 0 -26
-8 0 -15 -4 -15 -10 0 -5 7 -10 15 -10 8 0 15 -4 15 -10 0 -5 -5 -10 -12 -10
-6 0 -9 -3 -5 -6 3 -3 12 -2 19 2 16 10 27 11 245 20 486 19 937 -120 1280
-395 112 -89 183 -162 304 -311 160 -196 229 -305 229 -359 0 -14 -27 -134
-60 -265 l-60 -240 59 -87 c32 -48 69 -113 81 -145 26 -70 58 -229 67 -331 3
-40 10 -73 15 -73 5 0 23 7 40 16 21 11 43 14 68 10 l37 -6 7 98 c3 53 13 203
22 332 24 339 24 866 1 1030 -42 301 -89 570 -108 630 -30 93 -78 178 -113
204 -17 13 -87 46 -156 74 -263 106 -558 196 -750 227 -85 13 -267 18 -360 8z
m-820 -313 c0 -5 -10 -15 -22 -21 -23 -12 -23 -12 -4 10 21 23 26 26 26 11z
m32 -77 c-18 -2 -30 -8 -28 -12 3 -4 -1 -8 -9 -8 -8 0 -15 4 -15 8 0 11 21 18
55 17 30 -1 30 -1 -3 -5z"/>
<path d="M2380 3540 c8 -5 25 -10 38 -10 29 0 187 -53 270 -90 70 -32 99 -55
79 -63 -7 -3 -14 -20 -15 -38 -3 -43 -12 -51 -12 -11 l0 31 -36 -15 c-29 -12
-80 -14 -274 -12 l-238 3 -7 -70 c-4 -38 -9 -77 -11 -86 -4 -15 16 -16 228
-11 198 4 242 2 290 -12 69 -20 69 -20 61 2 -3 9 -3 14 1 10 4 -3 9 -12 10
-20 1 -7 26 -36 54 -65 38 -39 55 -66 68 -110 10 -32 19 -59 20 -61 1 -2 45 5
98 14 l96 17 0 44 c0 23 0 46 0 51 1 4 14 21 31 38 16 17 27 32 25 35 -3 3 3
5 13 6 15 1 21 -10 30 -54 17 -85 15 -103 -11 -104 -17 -1 -19 -2 -5 -6 9 -2
17 -11 17 -18 0 -10 16 -5 56 16 31 16 81 36 111 45 l55 16 -38 40 c-50 51
-189 161 -284 225 -189 127 -367 199 -619 253 -106 22 -123 24 -101 10z m758
-445 c-3 -3 -9 2 -12 12 -6 14 -5 15 5 6 7 -7 10 -15 7 -18z"/>
<path d="M1393 3428 c-15 -20 -25 -38 -20 -38 3 0 12 11 21 25 17 26 16 35 -1
13z"/>
<path d="M1370 3233 l0 -94 95 7 c58 4 144 2 220 -6 69 -7 127 -11 129 -9 5 5
-14 182 -20 188 -2 2 -30 -1 -61 -8 -32 -6 -110 -14 -173 -17 -102 -5 -119 -3
-152 14 l-38 20 0 -95z"/>
<path d="M2455 3143 c-33 -2 -109 -7 -170 -13 -124 -12 -133 -18 -173 -95 -68
-134 -21 -352 106 -487 85 -91 174 -129 302 -129 118 0 187 26 260 100 75 75
103 157 103 305 1 92 -2 106 -28 160 -64 128 -164 168 -400 159z m-275 -348
c43 -22 180 -64 235 -71 26 -4 49 -13 52 -20 3 -8 9 -11 14 -8 5 3 9 1 9 -5 0
-5 3 -18 6 -28 5 -15 4 -16 -6 -3 -10 13 -11 13 -7 0 2 -8 0 -27 -4 -42 -10
-36 -2 -36 12 -2 5 15 12 24 15 21 3 -3 1 -14 -5 -25 -15 -28 -14 -55 2 -47 6
4 3 -1 -7 -9 -11 -9 -30 -16 -42 -16 -13 0 -26 -5 -29 -11 -4 -6 -13 -8 -21
-5 -8 3 -14 -1 -14 -10 0 -11 -7 -13 -27 -8 -15 4 -34 7 -41 7 -7 0 -11 6 -8
13 7 17 -13 29 -41 26 -15 -2 -26 5 -37 25 -9 16 -16 21 -16 13 -1 -8 -10 3
-22 25 -11 22 -24 42 -27 45 -15 12 -31 52 -25 62 4 6 3 8 -3 5 -12 -7 -36 40
-28 54 4 5 1 9 -4 9 -6 0 -11 9 -11 20 0 21 15 18 80 -15z m123 -271 c-4 -11
-9 -12 -19 -3 -16 13 -19 23 -4 14 6 -3 10 -1 10 5 0 6 4 9 10 5 5 -3 7 -12 3
-21z m204 -16 c-3 -8 -6 -5 -6 6 -1 11 2 17 5 13 3 -3 4 -12 1 -19z m-90 -16
c-22 -24 -21 -31 3 -25 11 3 17 10 13 16 -3 6 -1 7 6 3 15 -10 7 -22 -19 -29
-14 -3 -24 1 -31 15 -7 12 -7 18 -1 14 5 -3 12 1 16 9 3 8 11 15 17 15 8 0 6
-7 -4 -18z"/>
<path d="M2220 2631 c0 -6 4 -13 10 -16 6 -3 7 1 4 9 -7 18 -14 21 -14 7z"/>
<path d="M2002 3110 c48 -14 81 -61 72 -101 -3 -13 5 -1 19 27 14 28 30 55 36
58 28 18 4 26 -71 25 -60 0 -75 -3 -56 -9z"/>
<path d="M1408 3100 c52 -8 82 -20 49 -20 -9 0 -19 -5 -23 -12 -4 -7 -3 -8 4
-4 24 14 30 -5 15 -44 -17 -43 -29 -51 -35 -22 -3 9 -4 -2 -4 -25 1 -47 15
-44 36 8 7 16 14 28 17 26 2 -2 -10 -33 -27 -68 -37 -78 -38 -112 -5 -145 51
-51 125 -75 250 -81 120 -6 145 -14 53 -17 -29 0 -54 -5 -55 -10 -1 -5 -7 -13
-15 -18 -9 -7 -7 -8 7 -4 16 5 21 1 21 -13 0 -10 -5 -17 -11 -15 -5 2 -17 -11
-25 -29 -8 -17 -25 -36 -37 -42 -12 -5 -24 -20 -26 -34 -6 -28 9 -65 22 -57 4
3 8 -1 8 -9 0 -11 -4 -12 -13 -4 -17 14 -86 20 -78 7 4 -6 -2 -8 -17 -3 -17 4
-20 3 -10 -3 12 -9 12 -11 0 -15 -8 -2 -3 -2 9 0 16 3 21 0 17 -8 -9 -13 -91
-5 -111 11 -8 7 -14 8 -18 1 -16 -26 127 -40 195 -20 48 15 112 67 105 86 -3
8 -2 12 3 8 13 -7 74 102 65 116 -4 7 -3 9 3 6 6 -4 24 28 43 76 27 66 33 97
34 157 1 68 -2 79 -29 119 -16 24 -47 58 -68 75 l-39 31 -181 2 c-124 1 -165
-1 -129 -7z m90 -77 c-6 -7 -12 -13 -13 -13 -2 0 -5 6 -8 13 -3 7 3 13 14 13
13 0 15 -3 7 -13z m209 -339 c-3 -3 -12 -4 -19 -1 -8 3 -5 6 6 6 11 1 17 -2
13 -5z m5 -91 c-3 -16 -7 -22 -10 -15 -4 13 4 42 11 42 2 0 2 -12 -1 -27z m25
-5 c-3 -8 -6 -5 -6 6 -1 11 2 17 5 13 3 -3 4 -12 1 -19z"/>
<path d="M1828 3103 l-48 -4 36 -52 c20 -28 41 -65 48 -82 12 -29 16 -31 57
-26 24 3 35 6 24 8 -46 9 -49 12 -30 33 25 28 67 25 95 -5 13 -14 20 -28 17
-32 -8 -7 11 -33 24 -33 5 0 9 9 9 21 0 13 -4 18 -12 13 -6 -4 -8 -3 -5 3 8
13 -52 68 -85 78 -28 9 -88 53 -88 65 0 5 17 11 38 13 l37 4 -35 0 c-19 -1
-56 -2 -82 -4z m17 -33 c10 -11 16 -20 13 -20 -3 0 -13 9 -23 20 -10 11 -16
20 -13 20 3 0 13 -9 23 -20z"/>
<path d="M1260 3089 c-53 -21 -87 -72 -109 -163 -8 -34 -9 -52 -2 -59 16 -16
13 -27 -3 -21 -12 5 -11 -6 3 -63 20 -76 56 -153 72 -153 6 0 8 -4 4 -9 -3 -5
5 -20 17 -33 15 -15 17 -16 8 -4 -14 19 -14 20 3 6 10 -7 27 -31 38 -52 11
-21 23 -36 28 -34 4 3 11 39 14 81 7 79 37 209 63 275 15 37 14 43 -17 139
-33 99 -34 101 -64 100 -16 0 -41 -5 -55 -10z"/>
<path d="M3378 2984 c-15 -8 -31 -22 -36 -32 -4 -9 -4 -119 2 -244 l9 -228 26
7 c54 13 71 23 71 42 0 11 14 28 35 41 61 38 82 108 50 169 -8 16 -34 43 -57
61 -30 23 -36 31 -20 27 15 -4 22 -1 22 10 0 9 8 22 18 30 15 13 15 14 1 10
-15 -5 -15 -3 -2 23 11 24 18 28 36 21 12 -4 30 -23 40 -42 24 -46 21 -203 -5
-239 -10 -14 -26 -36 -35 -50 l-17 -25 23 20 c52 45 105 183 97 251 -6 42 -30
96 -51 114 -27 23 -89 18 -126 -9 -17 -13 -29 -19 -25 -13 9 14 -3 41 -17 38
-7 -1 -9 -1 -4 1 4 3 4 9 1 15 -3 5 3 4 14 -3 12 -7 19 -17 16 -21 -3 -4 2 -5
10 -2 14 5 14 8 -1 22 -21 22 -43 24 -75 6z m22 -266 c25 -41 25 -76 1 -107
l-18 -24 -1 62 c0 34 -4 71 -7 81 -10 30 3 24 25 -12z"/>
<path d="M3035 2915 c-38 -13 -82 -26 -97 -29 -27 -6 -28 -9 -28 -69 0 -273
-144 -423 -410 -428 l-75 -1 50 -9 c28 -5 77 -6 111 -3 l60 6 78 -63 78 -62
-4 -51 c-5 -58 -38 -106 -73 -106 -12 0 -43 23 -75 56 -30 31 -106 89 -167
130 -107 71 -134 97 -127 119 2 6 -14 18 -36 28 -22 10 -69 50 -105 89 -36 39
-65 66 -65 61 0 -6 -22 -13 -49 -17 l-48 -6 -6 -61 c-3 -33 -11 -67 -19 -76
-7 -9 -39 -28 -71 -43 l-59 -27 32 -26 c22 -19 39 -25 56 -22 13 3 36 8 51 11
l28 6 -25 -20 c-14 -11 -50 -24 -80 -30 -52 -9 -53 -10 -15 -11 22 0 60 4 85
9 96 21 96 21 80 10 -11 -8 -8 -9 15 -4 37 8 44 14 19 15 -10 0 5 7 34 15 30
8 59 11 65 7 7 -4 32 -8 57 -9 55 -2 125 -32 173 -74 21 -18 41 -28 48 -24 8
4 9 3 5 -5 -11 -17 100 -128 157 -158 70 -35 174 -37 242 -3 144 72 238 322
252 674 l6 159 -58 -41 c-60 -44 -105 -53 -146 -32 -28 16 -23 30 9 24 15 -3
47 2 71 11 47 16 116 63 107 72 -3 3 -12 0 -21 -7 -13 -11 -15 -9 -15 14 0 31
-3 31 -95 1z m-842 -412 c-7 -2 -9 -11 -6 -20 4 -10 2 -14 -7 -11 -7 2 -14 14
-15 26 -1 12 3 18 8 15 7 -4 8 1 3 13 -7 19 -7 19 11 0 12 -13 14 -20 6 -23z"/>
<path d="M3160 2929 c0 -5 5 -7 10 -4 6 3 10 8 10 11 0 2 -4 4 -10 4 -5 0 -10
-5 -10 -11z"/>
<path d="M1876 2850 c-7 -62 -41 -172 -71 -231 -15 -28 -15 -32 -3 -21 29 24
88 202 88 266 0 14 5 26 10 26 14 0 13 -9 -16 -118 -15 -53 -28 -106 -31 -117
l-4 -20 10 20 c22 45 89 240 84 247 -2 5 -17 8 -32 8 -27 0 -29 -3 -35 -60z"/>
<path d="M1097 2839 c7 -7 15 -10 18 -7 3 3 -2 9 -12 12 -14 6 -15 5 -6 -5z"/>
<path d="M2071 2763 c-2 -22 39 -117 60 -143 21 -25 21 -24 0 12 -12 20 -30
60 -41 90 -10 29 -19 48 -19 41z"/>
<path d="M1608 2693 c7 -3 16 -2 19 1 4 3 -2 6 -13 5 -11 0 -14 -3 -6 -6z"/>
<path d="M1210 2580 c6 -11 13 -20 16 -20 2 0 0 9 -6 20 -6 11 -13 20 -16 20
-2 0 0 -9 6 -20z"/>
<path d="M1259 2513 c29 -38 113 -103 134 -103 5 0 -15 16 -44 36 -30 19 -69
52 -87 72 l-34 37 31 -42z"/>
<path d="M1415 2480 c-3 -5 -1 -10 4 -10 6 0 11 5 11 10 0 6 -2 10 -4 10 -3 0
-8 -4 -11 -10z"/>
<path d="M1448 2463 c7 -3 16 -2 19 1 4 3 -2 6 -13 5 -11 0 -14 -3 -6 -6z"/>
<path d="M1690 2444 c-39 -27 -118 -54 -162 -54 -19 0 -26 -4 -22 -14 4 -11
15 -11 66 1 34 8 70 19 81 24 28 15 31 4 9 -28 -105 -150 -148 -232 -90 -171
13 13 17 17 11 8 -31 -39 -8 -29 45 21 35 34 79 64 114 78 l58 23 -25 20 c-29
23 -57 82 -49 103 8 19 6 19 -36 -11z"/>
<path d="M1418 2403 c7 -3 16 -2 19 1 4 3 -2 6 -13 5 -11 0 -14 -3 -6 -6z"/>
<path d="M2181 2291 c-10 -7 -7 -9 12 -8 14 1 23 5 20 10 -6 9 -15 9 -32 -2z"/>
<path d="M2066 2258 c3 -5 10 -6 15 -3 13 9 11 12 -6 12 -8 0 -12 -4 -9 -9z"/>
<path d="M1960 2131 c-27 -66 -118 -138 -198 -158 l-34 -8 27 -25 c25 -22 27
-23 17 -4 -11 21 -9 22 85 29 65 5 101 12 108 21 5 8 38 19 72 26 l62 11 -43
41 c-23 23 -51 54 -62 70 l-21 28 -13 -31z"/>
<path d="M3355 2133 c5 -19 4 -24 -3 -15 -6 10 -11 -1 -16 -36 -10 -80 -65
-251 -106 -332 -101 -200 -252 -361 -485 -517 -190 -128 -350 -192 -570 -228
l-40 -7 30 -13 c17 -7 62 -27 100 -45 85 -39 171 -70 197 -70 11 0 18 -3 16
-7 -8 -19 -368 -366 -373 -361 -4 3 -26 100 -51 214 -61 282 -62 284 -83 284
-67 0 -250 108 -327 193 -92 101 -182 264 -220 394 -9 32 -18 59 -19 61 -1 1
-33 -12 -71 -29 -38 -17 -160 -71 -271 -119 l-202 -87 44 -108 c100 -245 245
-436 448 -588 429 -323 996 -443 1587 -337 449 81 872 314 1123 620 63 75 187
272 187 295 0 7 -26 28 -57 45 -135 77 -402 262 -462 322 -53 52 -73 84 -123
188 -33 69 -67 140 -75 157 -9 18 -48 56 -87 85 -101 76 -98 74 -91 41z"/>
<path d="M2118 2009 c17 -18 15 -27 -5 -32 -10 -3 6 -5 36 -6 30 0 52 1 50 3
-13 12 -92 46 -81 35z"/>
<path d="M2286 1937 c7 -18 -47 -56 -81 -58 -11 0 -14 -3 -8 -6 7 -2 42 7 77
21 73 29 80 31 70 14 -4 -7 -3 -8 5 -4 6 4 9 11 6 16 -3 4 1 11 7 13 7 3 2 6
-12 6 -14 1 -35 4 -48 7 -17 5 -21 3 -16 -9z"/>
<path d="M2148 1863 c6 -2 18 -2 25 0 6 3 1 5 -13 5 -14 0 -19 -2 -12 -5z"/>
</g>
</svg>
